{"asset":{"version":"2.0","generator":"babylon.js glTF exporter for 3dsmax 2021 v20201020.3"},"scene":0,"scenes":[{"nodes":[0,1,2]}],"nodes":[{"translation":[2.90679935E-07,0.490684867,-3.87573238E-07],"rotation":[0.520457149,-0.186650485,0.117767736,0.824873745],"scale":[0.9999999,1.00000024,0.9999998],"name":"PhysCamera001.Target"},{"mesh":0,"name":"Box001"},{"name":"Default light"}],"meshes":[{"primitives":[{"attributes":{"POSITION":1,"TANGENT":2,"NORMAL":3,"TEXCOORD_0":4},"indices":0}],"name":"Box001"}],"accessors":[{"bufferView":0,"componentType":5123,"count":36,"type":"SCALAR","name":"accessorIndices"},{"bufferView":1,"componentType":5126,"count":36,"max":[0.254,0.305562,0.254],"min":[-0.254,0.0,-0.254],"type":"VEC3","name":"accessorPositions"},{"bufferView":2,"componentType":5126,"count":36,"type":"VEC4","name":"accessorTangents"},{"bufferView":1,"byteOffset":432,"componentType":5126,"count":36,"type":"VEC3","name":"accessorNormals"},{"bufferView":3,"componentType":5126,"count":36,"type":"VEC2","name":"accessorUVs"}],"bufferViews":[{"buffer":0,"byteLength":72,"name":"bufferViewScalar"},{"buffer":0,"byteOffset":72,"byteLength":864,"byteStride":12,"name":"bufferViewFloatVec3"},{"buffer":0,"byteOffset":936,"byteLength":576,"byteStride":16,"name":"bufferViewFloatVec4"},{"buffer":0,"byteOffset":1512,"byteLength":288,"byteStride":8,"name":"bufferViewFloatVec2"}],"buffers":[{"uri":"cube.bin","byteLength":1800}]}