{"asset":{"version":"2.0","generator":"babylon.js glTF exporter for 3dsmax 2021 v20201020.3"},"scene":0,"scenes":[{"nodes":[0,1,2,3,4,5,6,7,8,9,10,11,12,13,14,15,16,17]}],"nodes":[{"mesh":0,"translation":[-0.220509067,0.30436334,0.00744946],"name":"S11123_01-001"},{"mesh":1,"translation":[1.52001383E-06,0.3059834,-0.0602065846],"name":"S11069_01-001"},{"mesh":2,"translation":[1.52001383E-06,0.3059834,-0.0602065846],"name":"S11069_03-001"},{"mesh":3,"translation":[1.52001383E-06,0.3059834,-0.0602065846],"name":"S11069_02-001"},{"mesh":4,"translation":[1.513958E-06,0.432668746,0.168063641],"name":"S20809_01-001"},{"mesh":5,"translation":[1.52606958E-06,0.5856321,-0.188290492],"name":"S11068_02-001"},{"mesh":6,"translation":[1.50184633E-06,0.394709229,0.214761063],"name":"S11068_04-001"},{"mesh":7,"translation":[1.513958E-06,0.3059834,0.071578294],"name":"S11068_03-001"},{"mesh":8,"translation":[1.52606958E-06,0.5856321,-0.188290492],"name":"S11068_01-001"},{"mesh":9,"translation":[1.52606958E-06,0.5856321,-0.188290492],"name":"S11068_05-001"},{"mesh":10,"translation":[1.38375754E-06,0.16361928,-0.0111694122],"name":"S8784_01-001"},{"mesh":11,"translation":[1.39586928E-06,0.26384005,-0.0111694122],"name":"S8784_02-001"},{"mesh":12,"translation":[1.38375754E-06,0.16361928,-0.0111694122],"name":"S8784_03-001"},{"mesh":13,"translation":[0.3128758,0.0762,0.09054623],"name":"S42_02-005"},{"mesh":14,"translation":[1.41403677E-06,0.2604872,-0.0111580277],"name":"S8782_01-001"},{"translation":[2.90679935E-07,0.490684867,-3.87573238E-07],"rotation":[0.520457149,-0.186650485,0.117767736,0.824873745],"scale":[0.9999999,1.00000024,0.9999998],"name":"PhysCamera001.Target"},{"name":"Default light"},{"camera":0,"translation":[-1.19008076,1.80920327,2.49504828],"rotation":[-0.215255111,-0.215256184,-0.0487074032,0.9512925],"scale":[0.99999994,1.0,0.9999997],"name":"PhysCamera001"}],"cameras":[{"perspective":{"yfov":0.602410138,"zfar":10000.0,"znear":0.1},"type":"perspective","name":"PhysCamera001"}],"meshes":[{"primitives":[{"attributes":{"POSITION":1,"NORMAL":2,"TEXCOORD_0":3},"indices":0,"material":0}],"name":"S11123_01-001"},{"primitives":[{"attributes":{"POSITION":5,"NORMAL":6,"TEXCOORD_0":7},"indices":4,"material":0}],"name":"S11069_01-001"},{"primitives":[{"attributes":{"POSITION":9,"NORMAL":10,"TEXCOORD_0":11},"indices":8,"material":0}],"name":"S11069_03-001"},{"primitives":[{"attributes":{"POSITION":13,"NORMAL":14,"TEXCOORD_0":15},"indices":12,"material":0}],"name":"S11069_02-001"},{"primitives":[{"attributes":{"POSITION":17,"NORMAL":18,"TEXCOORD_0":19},"indices":16,"material":1}],"name":"S20809_01-001"},{"primitives":[{"attributes":{"POSITION":21,"NORMAL":22,"TEXCOORD_0":23},"indices":20,"material":0}],"name":"S11068_02-001"},{"primitives":[{"attributes":{"POSITION":25,"NORMAL":26,"TEXCOORD_0":27},"indices":24,"material":0}],"name":"S11068_04-001"},{"primitives":[{"attributes":{"POSITION":29,"NORMAL":30,"TEXCOORD_0":31},"indices":28,"material":0}],"name":"S11068_03-001"},{"primitives":[{"attributes":{"POSITION":33,"NORMAL":34,"TEXCOORD_0":35},"indices":32,"material":0}],"name":"S11068_01-001"},{"primitives":[{"attributes":{"POSITION":37,"NORMAL":38,"TEXCOORD_0":39},"indices":36,"material":0}],"name":"S11068_05-001"},{"primitives":[{"attributes":{"POSITION":41,"NORMAL":42,"TEXCOORD_0":43},"indices":40,"material":0}],"name":"S8784_01-001"},{"primitives":[{"attributes":{"POSITION":45,"NORMAL":46},"indices":44,"material":2}],"name":"S8784_02-001"},{"primitives":[{"attributes":{"POSITION":48,"NORMAL":49},"indices":47,"material":0}],"name":"S8784_03-001"},{"primitives":[{"attributes":{"POSITION":51,"NORMAL":52,"TEXCOORD_0":53},"indices":50,"material":0}],"name":"S42_02-005"},{"primitives":[{"attributes":{"POSITION":55,"NORMAL":56,"TEXCOORD_0":57},"indices":54,"material":0}],"name":"S8782_01-001"}],"accessors":[{"bufferView":0,"componentType":5123,"count":600,"type":"SCALAR","name":"accessorIndices"},{"bufferView":1,"componentType":5126,"count":600,"max":[0.1931529,0.009403912,0.009403954],"min":[0.0252665766,-0.009403976,-0.009403932],"type":"VEC3","name":"accessorPositions"},{"bufferView":1,"byteOffset":7200,"componentType":5126,"count":600,"type":"VEC3","name":"accessorNormals"},{"bufferView":2,"componentType":5126,"count":600,"type":"VEC2","name":"accessorUVs"},{"bufferView":0,"byteOffset":1200,"componentType":5123,"count":2298,"type":"SCALAR","name":"accessorIndices"},{"bufferView":1,"byteOffset":14400,"componentType":5126,"count":2298,"max":[0.319385082,0.3227896,0.147266716],"min":[-0.3193851,-0.005115967,-0.1168381],"type":"VEC3","name":"accessorPositions"},{"bufferView":1,"byteOffset":41976,"componentType":5126,"count":2298,"type":"VEC3","name":"accessorNormals"},{"bufferView":2,"byteOffset":4800,"componentType":5126,"count":2298,"type":"VEC2","name":"accessorUVs"},{"bufferView":0,"byteOffset":5796,"componentType":5123,"count":1581,"type":"SCALAR","name":"accessorIndices"},{"bufferView":1,"byteOffset":69552,"componentType":5126,"count":1581,"max":[0.09884545,0.0407230966,0.10081318],"min":[-0.09880346,-0.020957619,-0.03136716],"type":"VEC3","name":"accessorPositions"},{"bufferView":1,"byteOffset":88524,"componentType":5126,"count":1581,"type":"VEC3","name":"accessorNormals"},{"bufferView":2,"byteOffset":23184,"componentType":5126,"count":1581,"type":"VEC2","name":"accessorUVs"},{"bufferView":0,"byteOffset":8960,"componentType":5123,"count":1272,"type":"SCALAR","name":"accessorIndices"},{"bufferView":1,"byteOffset":107496,"componentType":5126,"count":1272,"max":[0.322999954,0.335942775,0.151192471],"min":[-0.3230009,0.321505845,-0.06957628],"type":"VEC3","name":"accessorPositions"},{"bufferView":1,"byteOffset":122760,"componentType":5126,"count":1272,"type":"VEC3","name":"accessorNormals"},{"bufferView":2,"byteOffset":35832,"componentType":5126,"count":1272,"type":"VEC2","name":"accessorUVs"},{"bufferView":0,"byteOffset":11504,"componentType":5123,"count":3516,"type":"SCALAR","name":"accessorIndices"},{"bufferView":1,"byteOffset":138024,"componentType":5126,"count":3516,"max":[0.248898134,0.5487026,0.115264885],"min":[-0.248898074,-0.03071195,-0.4547547],"type":"VEC3","name":"accessorPositions"},{"bufferView":1,"byteOffset":180216,"componentType":5126,"count":3516,"type":"VEC3","name":"accessorNormals"},{"bufferView":2,"byteOffset":46008,"componentType":5126,"count":3516,"type":"VEC2","name":"accessorUVs"},{"bufferView":0,"byteOffset":18536,"componentType":5123,"count":156,"type":"SCALAR","name":"accessorIndices"},{"bufferView":1,"byteOffset":222408,"componentType":5126,"count":156,"max":[0.0610442124,-0.227372676,0.120547011],"min":[-0.06104449,-0.2965263,0.0503465123],"type":"VEC3","name":"accessorPositions"},{"bufferView":1,"byteOffset":224280,"componentType":5126,"count":156,"type":"VEC3","name":"accessorNormals"},{"bufferView":2,"byteOffset":74136,"componentType":5126,"count":156,"type":"VEC2","name":"accessorUVs"},{"bufferView":0,"byteOffset":18848,"componentType":5123,"count":2508,"type":"SCALAR","name":"accessorIndices"},{"bufferView":1,"byteOffset":226152,"componentType":5126,"count":2508,"max":[0.251710266,0.5839515,0.06517758],"min":[-0.2517102,0.00197088462,-0.5050914],"type":"VEC3","name":"accessorPositions"},{"bufferView":1,"byteOffset":256248,"componentType":5126,"count":2508,"type":"VEC3","name":"accessorNormals"},{"bufferView":2,"byteOffset":75384,"componentType":5126,"count":2508,"type":"VEC2","name":"accessorUVs"},{"bufferView":0,"byteOffset":23864,"componentType":5123,"count":1002,"type":"SCALAR","name":"accessorIndices"},{"bufferView":1,"byteOffset":286344,"componentType":5126,"count":1002,"max":[0.21849981,0.217868119,0.09814655],"min":[-0.21849981,0.0504317135,-0.2849333],"type":"VEC3","name":"accessorPositions"},{"bufferView":1,"byteOffset":298368,"componentType":5126,"count":1002,"type":"VEC3","name":"accessorNormals"},{"bufferView":2,"byteOffset":95448,"componentType":5126,"count":1002,"type":"VEC2","name":"accessorUVs"},{"bufferView":0,"byteOffset":25868,"componentType":5123,"count":2556,"type":"SCALAR","name":"accessorIndices"},{"bufferView":1,"byteOffset":310392,"componentType":5126,"count":2556,"max":[0.196623519,0.0996520743,0.341585129],"min":[-0.196623623,-0.312409282,-0.04501239],"type":"VEC3","name":"accessorPositions"},{"bufferView":1,"byteOffset":341064,"componentType":5126,"count":2556,"type":"VEC3","name":"accessorNormals"},{"bufferView":2,"byteOffset":103464,"componentType":5126,"count":2556,"type":"VEC2","name":"accessorUVs"},{"bufferView":0,"byteOffset":30980,"componentType":5123,"count":792,"type":"SCALAR","name":"accessorIndices"},{"bufferView":1,"byteOffset":371736,"componentType":5126,"count":792,"max":[0.07357691,-0.300558865,0.23274073],"min":[-0.07357714,-0.319068521,0.1316496],"type":"VEC3","name":"accessorPositions"},{"bufferView":1,"byteOffset":381240,"componentType":5126,"count":792,"type":"VEC3","name":"accessorNormals"},{"bufferView":2,"byteOffset":123912,"componentType":5126,"count":792,"type":"VEC2","name":"accessorUVs"},{"bufferView":0,"byteOffset":32564,"componentType":5123,"count":432,"type":"SCALAR","name":"accessorIndices"},{"bufferView":1,"byteOffset":390744,"componentType":5126,"count":432,"max":[0.025000006,0.06722475,0.0249999929],"min":[-0.0249999873,-0.137775257,-0.0249999929],"type":"VEC3","name":"accessorPositions"},{"bufferView":1,"byteOffset":395928,"componentType":5126,"count":432,"type":"VEC3","name":"accessorNormals"},{"bufferView":2,"byteOffset":130248,"componentType":5126,"count":432,"type":"VEC2","name":"accessorUVs"},{"bufferView":0,"byteOffset":33428,"componentType":5123,"count":144,"type":"SCALAR","name":"accessorIndices"},{"bufferView":1,"byteOffset":401112,"componentType":5126,"count":144,"max":[0.013995029,0.03565682,0.0139949853],"min":[-0.01399499,-0.0348388441,-0.0139950216],"type":"VEC3","name":"accessorPositions"},{"bufferView":1,"byteOffset":402840,"componentType":5126,"count":144,"type":"VEC3","name":"accessorNormals"},{"bufferView":0,"byteOffset":33716,"componentType":5123,"count":288,"type":"SCALAR","name":"accessorIndices"},{"bufferView":1,"byteOffset":404568,"componentType":5126,"count":288,"max":[0.0247000083,0.07222474,0.0246999934],"min":[-0.0246999878,0.06722473,-0.0246999934],"type":"VEC3","name":"accessorPositions"},{"bufferView":1,"byteOffset":408024,"componentType":5126,"count":288,"type":"VEC3","name":"accessorNormals"},{"bufferView":0,"byteOffset":34292,"componentType":5123,"count":8340,"type":"SCALAR","name":"accessorIndices"},{"bufferView":1,"byteOffset":411480,"componentType":5126,"count":8340,"max":[0.0263580717,0.016499985,0.240249574],"min":[-0.6521097,-0.07619999,-0.421342045],"type":"VEC3","name":"accessorPositions"},{"bufferView":1,"byteOffset":511560,"componentType":5126,"count":8340,"type":"VEC3","name":"accessorNormals"},{"bufferView":2,"byteOffset":133704,"componentType":5126,"count":8340,"type":"VEC2","name":"accessorUVs"},{"bufferView":0,"byteOffset":50972,"componentType":5123,"count":4800,"type":"SCALAR","name":"accessorIndices"},{"bufferView":1,"byteOffset":611640,"componentType":5126,"count":4800,"max":[0.324691683,-0.05266459,0.341401041],"min":[-0.324691653,-0.19373697,-0.2784877],"type":"VEC3","name":"accessorPositions"},{"bufferView":1,"byteOffset":669240,"componentType":5126,"count":4800,"type":"VEC3","name":"accessorNormals"},{"bufferView":2,"byteOffset":200424,"componentType":5126,"count":4800,"type":"VEC2","name":"accessorUVs"}],"bufferViews":[{"buffer":0,"byteLength":60572,"name":"bufferViewScalar"},{"buffer":0,"byteOffset":60572,"byteLength":726840,"byteStride":12,"name":"bufferViewFloatVec3"},{"buffer":0,"byteOffset":787412,"byteLength":238824,"byteStride":8,"name":"bufferViewFloatVec2"}],"buffers":[{"uri":"Silq.bin","byteLength":1026236}],"materials":[{"pbrMetallicRoughness":{"baseColorTexture":{"index":1},"metallicRoughnessTexture":{"index":2}},"normalTexture":{"index":0,"scale":0.3},"name":"Material #64"},{"pbrMetallicRoughness":{"baseColorTexture":{"index":4},"metallicRoughnessTexture":{"index":5}},"normalTexture":{"index":3,"scale":0.3},"name":"Material #63"},{"pbrMetallicRoughness":{"baseColorFactor":[0.215686277,0.215686277,0.215686277,1.0],"roughnessFactor":0.25},"name":"Material #65"}],"textures":[{"sampler":0,"source":0,"name":"Steelcase_Plastic_NRM.png"},{"sampler":0,"source":1,"name":"Steelcase_Plastic_Black_Albedo.png"},{"sampler":0,"source":2,"name":"Steelcase_Plastic_ROUGH0.jpg"},{"sampler":0,"source":3,"name":"CogentConnect_NRM.png"},{"sampler":0,"source":4,"name":"CogentConnect_Scarlet_Albedo.png"},{"sampler":0,"source":5,"name":"CogentConnect_ROUGHNESS0.jpg"}],"images":[{"uri":"./Steelcase_Plastic_NRM.png"},{"uri":"./Steelcase_Plastic_Black_Albedo.png"},{"uri":"./Steelcase_Plastic_ROUGH0.jpg"},{"uri":"./CogentConnect_NRM.png"},{"uri":"./CogentConnect_Scarlet_Albedo.png"},{"uri":"./CogentConnect_ROUGHNESS0.jpg"}],"samplers":[{"magFilter":9729,"minFilter":9987}]}